<mxfile host="app.diagrams.net" agent="Mozilla/5.0 (Windows NT 10.0; Win64; x64) AppleWebKit/537.36 (KHTML, like Gecko) Chrome/129.0.0.0 Safari/537.36" version="24.7.14">
  <diagram name="Page-1" id="_9r6geDOEYo5xFr4fmT0">
    <mxGraphModel dx="1354" dy="1666" grid="1" gridSize="10" guides="1" tooltips="1" connect="1" arrows="1" fold="1" page="1" pageScale="1" pageWidth="850" pageHeight="1100" background="#FFFFFF" math="0" shadow="0">
      <root>
        <mxCell id="0" />
        <mxCell id="1" parent="0" />
        <mxCell id="sWa0SD8Ajx1KSGOqKPP4-1" value="rr:template&lt;div&gt;&lt;span style=&quot;background-color: initial;&quot;&gt;&quot;&lt;/span&gt;&lt;span style=&quot;background-color: initial;&quot;&gt;RiC-O_1-0-1/{&lt;/span&gt;&lt;span style=&quot;background-color: initial;&quot;&gt;REFD}/RecordSet/1&lt;/span&gt;&lt;/div&gt;" style="swimlane;fontStyle=0;childLayout=stackLayout;horizontal=1;startSize=26;fillColor=none;horizontalStack=0;resizeParent=1;resizeParentMax=0;resizeLast=0;collapsible=1;marginBottom=0;whiteSpace=wrap;html=1;" parent="1" vertex="1">
          <mxGeometry x="350" y="360" width="240" height="52" as="geometry" />
        </mxCell>
        <mxCell id="sWa0SD8Ajx1KSGOqKPP4-2" value="rico:RecordSet" style="text;strokeColor=none;fillColor=none;align=center;verticalAlign=top;spacingLeft=4;spacingRight=4;overflow=hidden;rotatable=0;points=[[0,0.5],[1,0.5]];portConstraint=eastwest;whiteSpace=wrap;html=1;" parent="sWa0SD8Ajx1KSGOqKPP4-1" vertex="1">
          <mxGeometry y="26" width="240" height="26" as="geometry" />
        </mxCell>
        <mxCell id="Q8uZV5vyl1yQ3metHevY-1" value="rr:template&lt;div&gt;&lt;span style=&quot;background-color: initial;&quot;&gt;&quot;&lt;/span&gt;&lt;span style=&quot;background-color: initial;&quot;&gt;RiC-O_1-0-1/{&lt;/span&gt;&lt;span style=&quot;background-color: initial;&quot;&gt;REFD}/&lt;/span&gt;CreationRelation&lt;span style=&quot;background-color: initial;&quot;&gt;/1&lt;/span&gt;&lt;/div&gt;" style="swimlane;fontStyle=0;childLayout=stackLayout;horizontal=1;startSize=26;fillColor=none;horizontalStack=0;resizeParent=1;resizeParentMax=0;resizeLast=0;collapsible=1;marginBottom=0;whiteSpace=wrap;html=1;strokeColor=#FF0000;" parent="1" vertex="1">
          <mxGeometry x="150" y="180" width="250" height="52" as="geometry" />
        </mxCell>
        <mxCell id="Q8uZV5vyl1yQ3metHevY-2" value="rico:CreationRelation" style="text;strokeColor=none;fillColor=none;align=center;verticalAlign=top;spacingLeft=4;spacingRight=4;overflow=hidden;rotatable=0;points=[[0,0.5],[1,0.5]];portConstraint=eastwest;whiteSpace=wrap;html=1;" parent="Q8uZV5vyl1yQ3metHevY-1" vertex="1">
          <mxGeometry y="26" width="250" height="26" as="geometry" />
        </mxCell>
        <mxCell id="Q8uZV5vyl1yQ3metHevY-3" value="" style="endArrow=classic;html=1;rounded=0;entryX=0.5;entryY=1;entryDx=0;entryDy=0;exitX=0.5;exitY=0;exitDx=0;exitDy=0;" parent="1" source="sWa0SD8Ajx1KSGOqKPP4-1" target="Q8uZV5vyl1yQ3metHevY-1" edge="1">
          <mxGeometry relative="1" as="geometry">
            <mxPoint x="370" y="330" as="sourcePoint" />
            <mxPoint x="330" y="-140" as="targetPoint" />
          </mxGeometry>
        </mxCell>
        <mxCell id="Q8uZV5vyl1yQ3metHevY-4" value="rico:thingIsSourceOfRelation" style="edgeLabel;resizable=0;html=1;;align=center;verticalAlign=middle;" parent="Q8uZV5vyl1yQ3metHevY-3" connectable="0" vertex="1">
          <mxGeometry relative="1" as="geometry">
            <mxPoint x="-15" y="-11" as="offset" />
          </mxGeometry>
        </mxCell>
        <mxCell id="Q8uZV5vyl1yQ3metHevY-5" value="" style="endArrow=classic;html=1;rounded=0;exitX=0.856;exitY=-0.013;exitDx=0;exitDy=0;exitPerimeter=0;entryX=0.182;entryY=1.017;entryDx=0;entryDy=0;entryPerimeter=0;" parent="1" source="Q8uZV5vyl1yQ3metHevY-1" target="Y-5Df-KBnA2jDHBLZVD_-2" edge="1">
          <mxGeometry relative="1" as="geometry">
            <mxPoint x="329.5" y="-197" as="sourcePoint" />
            <mxPoint x="440" y="-260" as="targetPoint" />
          </mxGeometry>
        </mxCell>
        <mxCell id="Q8uZV5vyl1yQ3metHevY-6" value="rico:relationHasTarget" style="edgeLabel;resizable=0;html=1;;align=center;verticalAlign=middle;" parent="Q8uZV5vyl1yQ3metHevY-5" connectable="0" vertex="1">
          <mxGeometry relative="1" as="geometry">
            <mxPoint x="-11" y="16" as="offset" />
          </mxGeometry>
        </mxCell>
        <mxCell id="Q8uZV5vyl1yQ3metHevY-9" value="" style="endArrow=classic;html=1;rounded=0;exitX=0.53;exitY=0;exitDx=0;exitDy=0;exitPerimeter=0;entryX=0.349;entryY=1.051;entryDx=0;entryDy=0;entryPerimeter=0;" parent="1" source="sWa0SD8Ajx1KSGOqKPP4-1" target="Y-5Df-KBnA2jDHBLZVD_-2" edge="1">
          <mxGeometry relative="1" as="geometry">
            <mxPoint x="380" y="361.333251953125" as="sourcePoint" />
            <mxPoint x="505.99000000000024" y="-275.67600000000016" as="targetPoint" />
          </mxGeometry>
        </mxCell>
        <mxCell id="Q8uZV5vyl1yQ3metHevY-10" value="rico:hasCreator" style="edgeLabel;resizable=0;html=1;;align=center;verticalAlign=middle;" parent="Q8uZV5vyl1yQ3metHevY-9" connectable="0" vertex="1">
          <mxGeometry relative="1" as="geometry">
            <mxPoint x="2" y="-22" as="offset" />
          </mxGeometry>
        </mxCell>
        <mxCell id="Q8uZV5vyl1yQ3metHevY-11" value="&lt;div&gt;&lt;span style=&quot;background-color: initial;&quot;&gt;rr:template&lt;/span&gt;&lt;br&gt;&lt;/div&gt;&lt;div&gt;&lt;div&gt;&lt;span style=&quot;background-color: initial;&quot;&gt;&quot;KB/Date/{&lt;/span&gt;&lt;span style=&quot;background-color: initial;&quot;&gt;DATEOFF_1_BEGINNING}&quot;&lt;/span&gt;&lt;/div&gt;&lt;/div&gt;" style="swimlane;fontStyle=0;childLayout=stackLayout;horizontal=1;startSize=26;fillColor=none;horizontalStack=0;resizeParent=1;resizeParentMax=0;resizeLast=0;collapsible=1;marginBottom=0;whiteSpace=wrap;html=1;strokeColor=#FF0000;" parent="1" vertex="1">
          <mxGeometry x="10" y="-70" width="250" height="52" as="geometry" />
        </mxCell>
        <mxCell id="Q8uZV5vyl1yQ3metHevY-12" value="rico:Date" style="text;strokeColor=none;fillColor=none;align=center;verticalAlign=top;spacingLeft=4;spacingRight=4;overflow=hidden;rotatable=0;points=[[0,0.5],[1,0.5]];portConstraint=eastwest;whiteSpace=wrap;html=1;" parent="Q8uZV5vyl1yQ3metHevY-11" vertex="1">
          <mxGeometry y="26" width="250" height="26" as="geometry" />
        </mxCell>
        <mxCell id="Q8uZV5vyl1yQ3metHevY-13" value="&lt;div&gt;&lt;span style=&quot;background-color: initial;&quot;&gt;rr:template&lt;/span&gt;&lt;br&gt;&lt;/div&gt;&lt;div&gt;&lt;div&gt;&lt;span style=&quot;background-color: initial;&quot;&gt;&quot;KB/Date/{&lt;/span&gt;&lt;span style=&quot;background-color: initial;&quot;&gt;DATEOFF_1_END}&quot;&lt;/span&gt;&lt;/div&gt;&lt;/div&gt;" style="swimlane;fontStyle=0;childLayout=stackLayout;horizontal=1;startSize=26;fillColor=none;horizontalStack=0;resizeParent=1;resizeParentMax=0;resizeLast=0;collapsible=1;marginBottom=0;whiteSpace=wrap;html=1;strokeColor=#FF0000;" parent="1" vertex="1">
          <mxGeometry x="310" y="-70" width="170" height="52" as="geometry" />
        </mxCell>
        <mxCell id="Q8uZV5vyl1yQ3metHevY-14" value="rico:Date" style="text;strokeColor=none;fillColor=none;align=center;verticalAlign=top;spacingLeft=4;spacingRight=4;overflow=hidden;rotatable=0;points=[[0,0.5],[1,0.5]];portConstraint=eastwest;whiteSpace=wrap;html=1;" parent="Q8uZV5vyl1yQ3metHevY-13" vertex="1">
          <mxGeometry y="26" width="170" height="26" as="geometry" />
        </mxCell>
        <mxCell id="Q8uZV5vyl1yQ3metHevY-15" value="" style="endArrow=classic;html=1;rounded=0;exitX=0.385;exitY=0;exitDx=0;exitDy=0;exitPerimeter=0;entryX=0.719;entryY=1.205;entryDx=0;entryDy=0;entryPerimeter=0;" parent="1" source="Q8uZV5vyl1yQ3metHevY-1" target="Q8uZV5vyl1yQ3metHevY-12" edge="1">
          <mxGeometry relative="1" as="geometry">
            <mxPoint x="290" y="-200" as="sourcePoint" />
            <mxPoint x="290" y="-412" as="targetPoint" />
          </mxGeometry>
        </mxCell>
        <mxCell id="Q8uZV5vyl1yQ3metHevY-16" value="rico:hasBeginningDate" style="edgeLabel;resizable=0;html=1;;align=center;verticalAlign=middle;" parent="Q8uZV5vyl1yQ3metHevY-15" connectable="0" vertex="1">
          <mxGeometry relative="1" as="geometry">
            <mxPoint x="-5" y="-9" as="offset" />
          </mxGeometry>
        </mxCell>
        <mxCell id="Q8uZV5vyl1yQ3metHevY-17" value="" style="endArrow=classic;html=1;rounded=0;entryX=0.456;entryY=1.013;entryDx=0;entryDy=0;entryPerimeter=0;exitX=0.561;exitY=-0.003;exitDx=0;exitDy=0;exitPerimeter=0;" parent="1" source="Q8uZV5vyl1yQ3metHevY-1" target="Q8uZV5vyl1yQ3metHevY-14" edge="1">
          <mxGeometry relative="1" as="geometry">
            <mxPoint x="340" y="-200" as="sourcePoint" />
            <mxPoint x="374.5" y="-412" as="targetPoint" />
          </mxGeometry>
        </mxCell>
        <mxCell id="Q8uZV5vyl1yQ3metHevY-18" value="rico:hasEndDate" style="edgeLabel;resizable=0;html=1;;align=center;verticalAlign=middle;" parent="Q8uZV5vyl1yQ3metHevY-17" connectable="0" vertex="1">
          <mxGeometry relative="1" as="geometry">
            <mxPoint x="8" y="-20" as="offset" />
          </mxGeometry>
        </mxCell>
        <mxCell id="Y-5Df-KBnA2jDHBLZVD_-1" value="rr:template&lt;div&gt;&lt;span style=&quot;background-color: initial;&quot;&gt;&quot;&lt;/span&gt;&lt;span style=&quot;background-color: initial;&quot;&gt;RiC-O_1-0-1/&lt;/span&gt;&lt;span style=&quot;background-color: initial;&quot;&gt;{&lt;/span&gt;OFFICEC_1&lt;span style=&quot;background-color: initial;&quot;&gt;}/&lt;/span&gt;CorporateBody&lt;span style=&quot;background-color: initial;&quot;&gt;/1&lt;/span&gt;&lt;/div&gt;" style="swimlane;fontStyle=0;childLayout=stackLayout;horizontal=1;startSize=26;fillColor=none;horizontalStack=0;resizeParent=1;resizeParentMax=0;resizeLast=0;collapsible=1;marginBottom=0;whiteSpace=wrap;html=1;strokeColor=#FF0000;" parent="1" vertex="1">
          <mxGeometry x="510" width="309" height="52" as="geometry" />
        </mxCell>
        <mxCell id="Y-5Df-KBnA2jDHBLZVD_-2" value="rico:CorporateBody" style="text;strokeColor=none;fillColor=none;align=center;verticalAlign=top;spacingLeft=4;spacingRight=4;overflow=hidden;rotatable=0;points=[[0,0.5],[1,0.5]];portConstraint=eastwest;whiteSpace=wrap;html=1;" parent="Y-5Df-KBnA2jDHBLZVD_-1" vertex="1">
          <mxGeometry y="26" width="309" height="26" as="geometry" />
        </mxCell>
      </root>
    </mxGraphModel>
  </diagram>
</mxfile>
